<svg data-name="Layer 1" xmlns="http://www.w3.org/2000/svg" viewBox="0 0 218 217.66">
    <path d="M-1670 775.54v160.83a21.56 21.56 0 0 0 21.5 21.5h175a21.56 21.56 0 0 0 21.5-21.5v-26.59a23.44 23.44 0 0 1-2.83.18h-124.33a23.57 23.57 0 0 1-23.5-23.5 23.57 23.57 0 0 1 23.5-23.5h124.33a23.44 23.44 0 0 1 2.83.18v-66.55h-197a21.11 21.11 0 0 1-21-21.05Z" transform="translate(1670.01 -740.21)" style="fill:#ed1c24"/>
    <path d="M-1473.06 740.21H-1649a21.11 21.11 0 0 0-21 21.05v14.62a21.11 21.11 0 0 0 21 21.05h197v-35.67a21.05 21.05 0 0 0-21.06-21.05Zm11.72 37.33H-1600a2.67 2.67 0 0 1-2.67-2.67 2.67 2.67 0 0 1 2.67-2.67h138.67a2.67 2.67 0 0 1 2.67 2.67 2.67 2.67 0 0 1-2.68 2.67Zm0-11.33H-1600a2.67 2.67 0 0 1-2.67-2.67 2.67 2.67 0 0 1 2.67-2.67h138.67a2.67 2.67 0 0 1 2.67 2.67 2.67 2.67 0 0 1-2.68 2.67Z" transform="translate(1670.01 -740.21)" style="fill:#f26522"/>
    <circle cx="92.17" cy="146.58" r="11.75" style="fill:#ed1c24"/>
</svg>
