<svg xmlns="http://www.w3.org/2000/svg" width="120" height="125" viewBox="0 0 120 125" fill="none">
<path d="M118.8 34.4001L110.3 28.7001L58.1999 60.8001L47.1999 53.4001L99.2999 21.2001L88.2999 13.8001L36.0999 46.0001L25.0999 38.6001L77.0999 6.4001L68.5999 0.700103C67.1999 -0.199897 64.7999 -0.199897 63.1999 0.800103L3.89995 37.4001C2.29995 38.4001 2.09995 40.0001 3.49995 40.9001L53.6999 74.6001C55.0999 75.5001 57.4999 75.5001 59.0999 74.5001L118.3 37.9001C120 36.9001 120.2 35.3001 118.8 34.4001Z" fill="#FFFFFF"/>
<path d="M117.3 58.8001L108.8 53.1001L56.6999 85.3001L12.4999 55.6001L2.39995 61.8001C0.799946 62.8001 0.599946 64.4001 1.99995 65.3001L52.1999 99.0001C53.5999 99.9001 55.9999 99.9001 57.5999 98.9001L116.8 62.3001C118.5 61.3001 118.7 59.7001 117.3 58.8001Z" fill="#FFFFFF"/>
<path d="M116.2 83.4002L107.7 77.7002L55.5999 109.9L11.3999 80.2002L1.39995 86.4002C-0.200054 87.4002 -0.400054 89.0002 0.999946 89.9002L51.1999 123.6C52.5999 124.5 54.9999 124.5 56.5999 123.5L115.8 86.9002C117.4 85.9002 117.6 84.3002 116.2 83.4002Z" fill="#FFFFFF"/>
</svg>