<svg width="21" height="20" viewBox="0 0 21 20" fill="none" xmlns="http://www.w3.org/2000/svg">
<path d="M0.5 3.25217V18.0248C0.5 19.1088 1.38921 20 2.47094 20H18.5134C19.5952 20 20.4844 19.1088 20.4844 18.0248V15.5811C20.4019 15.5902 20.3102 15.5994 20.2277 15.5994H8.82376C7.6412 15.5994 6.66949 14.6256 6.66949 13.4405C6.66949 12.2554 7.6412 11.2816 8.82376 11.2816H20.2185C20.3102 11.2816 20.3927 11.2907 20.4752 11.2999V5.18143H2.43427C1.37088 5.18143 0.5 4.31785 0.5 3.25217Z" fill="white"/>
<path d="M18.5501 0H2.43427C1.37088 0 0.5 0.87276 0.5 1.93845V3.27974C0.5 4.34543 1.37088 5.21819 2.43427 5.21819H20.4844V1.93845C20.4844 0.87276 19.6227 0 18.5501 0ZM19.6318 3.43592H6.917C6.77949 3.43592 6.66949 3.32568 6.66949 3.18787C6.66949 3.05007 6.77949 2.93982 6.917 2.93982H19.6318C19.7693 2.93982 19.8793 3.05007 19.8793 3.18787C19.8793 3.32568 19.7602 3.43592 19.6318 3.43592ZM19.6318 2.38861H6.917C6.77949 2.38861 6.66949 2.27836 6.66949 2.14056C6.66949 2.00275 6.77949 1.89251 6.917 1.89251H19.6318C19.7693 1.89251 19.8793 2.00275 19.8793 2.14056C19.8793 2.27836 19.7602 2.38861 19.6318 2.38861Z" fill="#F26522"/>
<path d="M18.5501 0H2.43427C1.37088 0 0.5 0.87276 0.5 1.93845V3.27974C0.5 4.34543 1.37088 5.21819 2.43427 5.21819H20.4844V1.93845C20.4844 0.87276 19.6227 0 18.5501 0ZM19.6318 3.43592H6.917C6.77949 3.43592 6.66949 3.32568 6.66949 3.18787C6.66949 3.05007 6.77949 2.93982 6.917 2.93982H19.6318C19.7693 2.93982 19.8793 3.05007 19.8793 3.18787C19.8793 3.32568 19.7602 3.43592 19.6318 3.43592ZM19.6318 2.38861H6.917C6.77949 2.38861 6.66949 2.27836 6.66949 2.14056C6.66949 2.00275 6.77949 1.89251 6.917 1.89251H19.6318C19.7693 1.89251 19.8793 2.00275 19.8793 2.14056C19.8793 2.27836 19.7602 2.38861 19.6318 2.38861Z" fill="#F26522"/>
<path d="M8.95117 14.5521C9.54859 14.5521 10.0329 14.0667 10.0329 13.468C10.0329 12.8693 9.54859 12.3839 8.95117 12.3839C8.35375 12.3839 7.86945 12.8693 7.86945 13.468C7.86945 14.0667 8.35375 14.5521 8.95117 14.5521Z" fill="white"/>
</svg>
